<svg width="600" height="600" viewBox="0 0 600 600" fill="none" xmlns="http://www.w3.org/2000/svg">
<path d="M292.8 441.72V406.44H427.2V441.72H292.8Z" fill="white"/>
<path d="M292.8 441.72H289.8V444.72H292.8V441.72ZM292.8 406.44V403.44H289.8V406.44H292.8ZM427.2 406.44H430.2V403.44H427.2V406.44ZM427.2 441.72V444.72H430.2V441.72H427.2ZM295.8 441.72V406.44H289.8V441.72H295.8ZM292.8 409.44H427.2V403.44H292.8V409.44ZM424.2 406.44V441.72H430.2V406.44H424.2ZM427.2 438.72H292.8V444.72H427.2V438.72Z" fill="black"/>
<path d="M210 442V181.2H302.4C321.333 181.2 338.4 183.867 353.6 189.2C369.067 194.267 381.333 202.933 390.4 215.2C399.733 227.467 404.4 244.133 404.4 265.2C404.4 285.467 399.733 302.133 390.4 315.2C381.067 328.267 368.667 338 353.2 344.4C337.733 350.533 320.8 353.6 302.4 353.6H268.8V442H210ZM268.8 306.8H298.8C315.067 306.8 327.067 303.2 334.8 296C342.8 288.8 346.8 278.533 346.8 265.2C346.8 251.333 342.667 241.733 334.4 236.4C326.4 230.8 314.533 228 298.8 228H268.8V306.8Z" fill="white"/>
<path d="M210 442H207V445H210V442ZM210 181.2V178.2H207V181.2H210ZM353.6 189.2L352.607 192.031L352.636 192.041L352.666 192.051L353.6 189.2ZM390.4 215.2L387.987 216.983L388 217L388.013 217.017L390.4 215.2ZM390.4 315.2L387.959 313.456L387.959 313.456L390.4 315.2ZM353.2 344.4L354.306 347.189L354.327 347.181L354.347 347.172L353.2 344.4ZM268.8 353.6V350.6H265.8V353.6H268.8ZM268.8 442V445H271.8V442H268.8ZM268.8 306.8H265.8V309.8H268.8V306.8ZM334.8 296L332.793 293.77L332.774 293.787L332.756 293.804L334.8 296ZM334.4 236.4L332.68 238.858L332.726 238.89L332.774 238.921L334.4 236.4ZM268.8 228V225H265.8V228H268.8ZM213 442V181.2H207V442H213ZM210 184.2H302.4V178.2H210V184.2ZM302.4 184.2C321.053 184.2 337.776 186.827 352.607 192.031L354.593 186.369C339.024 180.906 321.614 178.2 302.4 178.2V184.2ZM352.666 192.051C367.583 196.937 379.316 205.252 387.987 216.983L392.813 213.417C383.35 200.615 370.55 191.596 354.534 186.349L352.666 192.051ZM388.013 217.017C396.825 228.599 401.4 244.552 401.4 265.2H407.4C407.4 243.714 402.641 226.334 392.787 213.383L388.013 217.017ZM401.4 265.2C401.4 285.006 396.843 301.018 387.959 313.456L392.841 316.944C402.623 303.249 407.4 285.927 407.4 265.2H401.4ZM387.959 313.456C378.966 326.046 367.024 335.433 352.053 341.628L354.347 347.172C370.31 340.567 383.167 330.488 392.841 316.944L387.959 313.456ZM352.094 341.611C337.015 347.591 320.461 350.6 302.4 350.6V356.6C321.139 356.6 338.452 353.476 354.306 347.189L352.094 341.611ZM302.4 350.6H268.8V356.6H302.4V350.6ZM265.8 353.6V442H271.8V353.6H265.8ZM268.8 439H210V445H268.8V439ZM268.8 309.8H298.8V303.8H268.8V309.8ZM298.8 309.8C315.429 309.8 328.321 306.131 336.844 298.196L332.756 293.804C325.812 300.269 314.704 303.8 298.8 303.8V309.8ZM336.807 298.23C345.585 290.329 349.8 279.165 349.8 265.2H343.8C343.8 277.902 340.015 287.271 332.793 293.77L336.807 298.23ZM349.8 265.2C349.8 250.77 345.472 239.973 336.026 233.879L332.774 238.921C339.861 243.493 343.8 251.897 343.8 265.2H349.8ZM336.12 233.942C327.393 227.833 314.804 225 298.8 225V231C314.262 231 325.407 233.767 332.68 238.858L336.12 233.942ZM298.8 225H268.8V231H298.8V225ZM265.8 228V306.8H271.8V228H265.8Z" fill="black"/>
<ellipse cx="303" cy="265" rx="67" ry="68" fill="white"/>
<path d="M271.92 320.68V292.96L317.28 265.6V264.88L271.92 237.52V209.8L342.48 254.8V275.68L271.92 320.68Z" fill="#8F00FF"/>
<path d="M271.92 320.68H268.92V326.151L273.533 323.209L271.92 320.68ZM271.92 292.96L270.371 290.391L268.92 291.266V292.96H271.92ZM317.28 265.6L318.829 268.169L320.28 267.294V265.6H317.28ZM317.28 264.88H320.28V263.186L318.829 262.311L317.28 264.88ZM271.92 237.52H268.92V239.214L270.371 240.089L271.92 237.52ZM271.92 209.8L273.533 207.271L268.92 204.329V209.8H271.92ZM342.48 254.8H345.48V253.155L344.093 252.271L342.48 254.8ZM342.48 275.68L344.093 278.209L345.48 277.325V275.68H342.48ZM274.92 320.68V292.96H268.92V320.68H274.92ZM273.469 295.529L318.829 268.169L315.731 263.031L270.371 290.391L273.469 295.529ZM320.28 265.6V264.88H314.28V265.6H320.28ZM318.829 262.311L273.469 234.951L270.371 240.089L315.731 267.449L318.829 262.311ZM274.92 237.52V209.8H268.92V237.52H274.92ZM270.307 212.329L340.867 257.329L344.093 252.271L273.533 207.271L270.307 212.329ZM339.48 254.8V275.68H345.48V254.8H339.48ZM340.867 273.151L270.307 318.151L273.533 323.209L344.093 278.209L340.867 273.151Z" fill="black"/>
</svg>
