<svg width="700" height="700" viewBox="0 0 700 700" fill="none" xmlns="http://www.w3.org/2000/svg">
<path d="M274.348 528C254.051 528 237.598 511.546 237.598 491.25V302C237.598 246.772 282.369 202 337.598 202H353.098C376.764 202 398.098 205.333 417.098 212C436.431 218.333 451.764 229.167 463.098 244.5C474.764 259.833 480.598 280.667 480.598 307C480.598 332.333 474.764 353.167 463.098 369.5C451.431 385.833 435.931 398 416.598 406C397.264 413.667 376.098 417.5 353.098 417.5V417.5C329.902 417.5 311.098 436.304 311.098 459.5V491.25C311.098 511.546 294.644 528 274.348 528V528ZM311.098 321.5C311.098 342.211 327.887 359 348.598 359V359C368.931 359 383.931 354.5 393.598 345.5C403.598 336.5 408.598 323.667 408.598 307C408.598 289.667 403.431 277.667 393.098 271C383.098 264 368.264 260.5 348.598 260.5V260.5C327.887 260.5 311.098 277.289 311.098 298V321.5Z" fill="#8F00FF"/>
<path d="M347 392C392.84 392 430 354.84 430 309C430 263.16 392.84 226 347 226C301.16 226 264 263.16 264 309C264 354.84 301.16 392 347 392Z" fill="#8F00FF"/>
<path d="M335.869 369.628C325.353 376.335 311.578 368.782 311.578 356.31V356.31C311.578 350.774 314.476 345.642 319.216 342.783L372.899 310.403C373.159 310.246 373.318 309.964 373.318 309.66V309.66C373.318 309.356 373.159 309.074 372.899 308.917L319.216 276.537C314.476 273.678 311.578 268.546 311.578 263.01V263.01C311.578 250.538 325.353 242.985 335.869 249.692L395.637 287.809C403.1 292.569 407.618 300.808 407.618 309.66V309.66C407.618 318.512 403.1 326.751 395.637 331.511L335.869 369.628Z" fill="white"/>
<path d="M354.078 527.8C344.137 527.8 336.078 519.741 336.078 509.8V509.8C336.078 499.859 344.137 491.8 354.078 491.8H510.078C520.019 491.8 528.078 499.859 528.078 509.8V509.8C528.078 519.741 520.019 527.8 510.078 527.8H354.078Z" fill="#8F00FF"/>
</svg>
