<svg width="2000" height="2000" viewBox="10 30 700 700" fill="none" xmlns="http://www.w3.org/2000/svg">
<path d="M237.598 528V202H353.098C376.764 202 398.098 205.333 417.098 212C436.431 218.333 451.764 229.167 463.098 244.5C474.764 259.833 480.598 280.667 480.598 307C480.598 332.333 474.764 353.167 463.098 369.5C451.431 385.833 435.931 398 416.598 406C397.264 413.667 376.098 417.5 353.098 417.5H311.098V528H237.598ZM311.098 359H348.598C368.931 359 383.931 354.5 393.598 345.5C403.598 336.5 408.598 323.667 408.598 307C408.598 289.667 403.431 277.667 393.098 271C383.098 264 368.264 260.5 348.598 260.5H311.098V359Z" fill="white"/>
<path d="M237.598 528H235.098V530.5H237.598V528ZM237.598 202V199.5H235.098V202H237.598ZM417.098 212L416.27 214.359L416.295 214.368L416.319 214.376L417.098 212ZM463.098 244.5L461.087 245.986L461.098 246L461.108 246.014L463.098 244.5ZM416.598 406L417.519 408.324L417.536 408.317L417.554 408.31L416.598 406ZM311.098 417.5V415H308.598V417.5H311.098ZM311.098 528V530.5H313.598V528H311.098ZM311.098 359H308.598V361.5H311.098V359ZM393.598 345.5L391.925 343.642L391.91 343.656L391.894 343.67L393.598 345.5ZM393.098 271L391.664 273.048L391.703 273.075L391.742 273.101L393.098 271ZM311.098 260.5V258H308.598V260.5H311.098ZM240.098 528V202H235.098V528H240.098ZM237.598 204.5H353.098V199.5H237.598V204.5ZM353.098 204.5C376.531 204.5 397.578 207.8 416.27 214.359L417.925 209.641C398.617 202.866 376.998 199.5 353.098 199.5V204.5ZM416.319 214.376C435.195 220.559 450.083 231.099 461.087 245.986L465.108 243.014C453.445 227.235 437.667 216.108 417.876 209.624L416.319 214.376ZM461.108 246.014C472.341 260.777 478.098 281.016 478.098 307H483.098C483.098 280.318 477.188 258.889 465.087 242.986L461.108 246.014ZM478.098 307C478.098 331.95 472.356 352.237 461.063 368.047L465.132 370.953C477.173 354.096 483.098 332.717 483.098 307H478.098ZM461.063 368.047C449.681 383.983 434.562 395.861 415.642 403.69L417.554 408.31C437.3 400.139 453.181 387.684 465.132 370.953L461.063 368.047ZM415.676 403.676C396.666 411.215 375.816 415 353.098 415V420C376.38 420 397.863 416.119 417.519 408.324L415.676 403.676ZM353.098 415H311.098V420H353.098V415ZM308.598 417.5V528H313.598V417.5H308.598ZM311.098 525.5H237.598V530.5H311.098V525.5ZM311.098 361.5H348.598V356.5H311.098V361.5ZM348.598 361.5C369.233 361.5 384.977 356.942 395.301 347.33L391.894 343.67C382.885 352.058 368.629 356.5 348.598 356.5V361.5ZM395.27 347.358C405.919 337.774 411.098 324.193 411.098 307H406.098C406.098 323.14 401.277 335.226 391.925 343.642L395.27 347.358ZM411.098 307C411.098 289.197 405.769 276.2 394.453 268.899L391.742 273.101C401.093 279.133 406.098 290.136 406.098 307H411.098ZM394.531 268.952C383.925 261.528 368.49 258 348.598 258V263C368.039 263 382.27 266.472 391.664 273.048L394.531 268.952ZM348.598 258H311.098V263H348.598V258ZM308.598 260.5V359H313.598V260.5H308.598Z" fill="black"/>
<path d="M347 392C392.84 392 430 354.84 430 309C430 263.16 392.84 226 347 226C301.16 226 264 263.16 264 309C264 354.84 301.16 392 347 392Z" fill="white"/>
<path d="M311.578 385.12V347.39L373.318 310.15V309.17L311.578 271.93V234.2L407.618 295.45V323.87L311.578 385.12Z" fill="#8F00FF"/>
<path d="M311.578 385.12H309.078V389.68L312.922 387.228L311.578 385.12ZM311.578 347.39L310.287 345.249L309.078 345.978V347.39H311.578ZM373.318 310.15L374.609 312.291L375.818 311.562V310.15H373.318ZM373.318 309.17H375.818V307.758L374.609 307.029L373.318 309.17ZM311.578 271.93H309.078V273.342L310.287 274.071L311.578 271.93ZM311.578 234.2L312.922 232.092L309.078 229.64V234.2H311.578ZM407.618 295.45H410.118V294.079L408.962 293.342L407.618 295.45ZM407.618 323.87L408.962 325.978L410.118 325.241V323.87H407.618ZM314.078 385.12V347.39H309.078V385.12H314.078ZM312.869 349.531L374.609 312.291L372.027 308.009L310.287 345.249L312.869 349.531ZM375.818 310.15V309.17H370.818V310.15H375.818ZM374.609 307.029L312.869 269.789L310.287 274.071L372.027 311.311L374.609 307.029ZM314.078 271.93V234.2H309.078V271.93H314.078ZM310.234 236.308L406.274 297.558L408.962 293.342L312.922 232.092L310.234 236.308ZM405.118 295.45V323.87H410.118V295.45H405.118ZM406.274 321.762L310.234 383.012L312.922 387.228L408.962 325.978L406.274 321.762Z" fill="black"/>
<path d="M336.078 527.8V491.8H528.078V527.8H336.078Z" fill="black"/>
<path d="M336.078 527.8H333.578V530.3H336.078V527.8ZM336.078 491.8V489.3H333.578V491.8H336.078ZM528.078 491.8H530.578V489.3H528.078V491.8ZM528.078 527.8V530.3H530.578V527.8H528.078ZM338.578 527.8V491.8H333.578V527.8H338.578ZM336.078 494.3H528.078V489.3H336.078V494.3ZM525.578 491.8V527.8H530.578V491.8H525.578ZM528.078 525.3H336.078V530.3H528.078V525.3Z" fill="black"/>
</svg>
